<svg xmlns="http://www.w3.org/2000/svg" width="1440" height="920" viewBox="0 0 1440 920" fill="none">
  <defs>
    <linearGradient id="lid" x1="720" y1="0" x2="720" y2="800" gradientUnits="userSpaceOnUse">
      <stop stop-color="#3a3a3c"/><stop offset="1" stop-color="#1c1c1e"/>
    </linearGradient>
    <linearGradient id="base" x1="720" y1="800" x2="720" y2="920" gradientUnits="userSpaceOnUse">
      <stop stop-color="#3a3a3c"/><stop offset=".5" stop-color="#2c2c2e"/><stop offset="1" stop-color="#111"/>
    </linearGradient>
    <linearGradient id="lg" x1="0" y1="0" x2="1" y2="1">
      <stop stop-color="#3b82f6" stop-opacity=".4"/><stop offset="1" stop-color="#8b5cf6" stop-opacity=".3"/>
    </linearGradient>
    <clipPath id="screen-clip"><rect x="134" y="30" width="1172" height="754" rx="8"/></clipPath>
  </defs>

  <!-- Lid -->
  <rect x="100" y="0" width="1240" height="800" rx="18" fill="url(#lid)" stroke="rgba(255,255,255,0.08)" stroke-width="1"/>
  <!-- Webcam -->
  <circle cx="720" cy="16" r="3" fill="#1a1a1e" stroke="rgba(255,255,255,0.06)" stroke-width=".5"/>

  <!-- Screen -->
  <g clip-path="url(#screen-clip)">
    <rect x="134" y="30" width="1172" height="754" rx="8" fill="#0a0e1a"/>

    <!-- Browser chrome -->
    <rect x="134" y="30" width="1172" height="38" fill="#161a2a"/>
    <circle cx="158" cy="49" r="5" fill="#ff5f57"/><circle cx="176" cy="49" r="5" fill="#febc2e"/><circle cx="194" cy="49" r="5" fill="#28c840"/>
    <rect x="500" y="38" width="440" height="22" rx="6" fill="rgba(255,255,255,0.05)"/>
    <text x="700" y="53" fill="#666" font-size="11" font-family="-apple-system,system-ui,sans-serif" text-anchor="middle">assetly.network</text>
    <line x1="134" y1="68" x2="1306" y2="68" stroke="rgba(255,255,255,0.04)"/>

    <!-- Sidebar -->
    <rect x="134" y="68" width="196" height="716" fill="#0d1120"/>
    <line x1="330" y1="68" x2="330" y2="784" stroke="rgba(255,255,255,0.04)"/>
    <rect x="148" y="84" width="24" height="24" rx="6" fill="url(#lg)"/>
    <rect x="154" y="90" width="12" height="12" rx="2" fill="rgba(255,255,255,0.85)"/>
    <text x="182" y="101" fill="rgba(255,255,255,0.9)" font-size="13" font-weight="600" font-family="-apple-system,system-ui,sans-serif">Assetly</text>
    <rect x="142" y="126" width="180" height="28" rx="6" fill="rgba(255,255,255,0.06)"/>
    <text x="160" y="145" fill="rgba(255,255,255,0.85)" font-size="12" font-family="-apple-system,system-ui,sans-serif">Varlıklar</text>
    <text x="160" y="175" fill="rgba(255,255,255,0.3)" font-size="12" font-family="-apple-system,system-ui,sans-serif">Bakım</text>
    <text x="160" y="201" fill="rgba(255,255,255,0.3)" font-size="12" font-family="-apple-system,system-ui,sans-serif">Servis Kayıtları</text>
    <text x="160" y="227" fill="rgba(255,255,255,0.3)" font-size="12" font-family="-apple-system,system-ui,sans-serif">Belgeler</text>
    <text x="160" y="253" fill="rgba(255,255,255,0.3)" font-size="12" font-family="-apple-system,system-ui,sans-serif">Zaman Akışı</text>
    <text x="160" y="279" fill="rgba(255,255,255,0.3)" font-size="12" font-family="-apple-system,system-ui,sans-serif">Giderler</text>
    <text x="160" y="305" fill="rgba(255,255,255,0.3)" font-size="12" font-family="-apple-system,system-ui,sans-serif">Bildirimler</text>

    <!-- Main content -->
    <!-- Today card -->
    <rect x="350" y="88" width="930" height="82" rx="8" fill="rgba(255,255,255,0.02)"/>
    <text x="370" y="108" fill="rgba(255,255,255,0.35)" font-size="9.5" letter-spacing="1.8" font-family="-apple-system,system-ui,sans-serif">BUGÜN İLGİLENMEN GEREKENLER</text>
    <circle cx="378" cy="130" r="3" fill="#fbbf24" opacity=".8"/>
    <text x="390" y="134" fill="rgba(255,255,255,0.7)" font-size="12.5" font-family="-apple-system,system-ui,sans-serif"><tspan fill="rgba(255,255,255,0.85)">Klima</tspan>  <tspan fill="rgba(255,255,255,0.35)">→</tspan>  <tspan>3 gün içinde bakım</tspan></text>
    <circle cx="378" cy="152" r="3" fill="#f87171" opacity=".8"/>
    <text x="390" y="156" fill="rgba(255,255,255,0.7)" font-size="12.5" font-family="-apple-system,system-ui,sans-serif"><tspan fill="rgba(255,255,255,0.85)">Elektrik faturası</tspan>  <tspan fill="rgba(255,255,255,0.35)">→</tspan>  <tspan>2 gün kaldı</tspan></text>

    <!-- Header -->
    <text x="350" y="210" fill="rgba(255,255,255,0.9)" font-size="17" font-weight="600" font-family="-apple-system,system-ui,sans-serif">Varlıklarım</text>
    <text x="350" y="228" fill="rgba(255,255,255,0.4)" font-size="12" font-family="-apple-system,system-ui,sans-serif">5 kayıt · güncel</text>
    <text x="1260" y="210" fill="rgba(255,255,255,0.25)" font-size="9.5" letter-spacing="1.8" text-anchor="end" font-family="-apple-system,system-ui,sans-serif">DURUM</text>

    <!-- Row 1 -->
    <rect x="358" y="250" width="34" height="34" rx="8" fill="rgba(255,255,255,0.04)"/>
    <text x="404" y="266" fill="rgba(255,255,255,0.85)" font-size="13" font-weight="500" font-family="-apple-system,system-ui,sans-serif">Telefon</text>
    <text x="404" y="282" fill="rgba(255,255,255,0.4)" font-size="11" font-family="-apple-system,system-ui,sans-serif">Garanti devam ediyor</text>
    <rect x="1184" y="258" width="72" height="20" rx="10" fill="rgba(52,211,153,0.1)"/>
    <circle cx="1198" cy="268" r="2.5" fill="#34d399" opacity=".7"/>
    <text x="1220" y="272" text-anchor="middle" fill="rgba(167,243,208,0.9)" font-size="10" font-weight="500" font-family="-apple-system,system-ui,sans-serif">Normal</text>
    <line x1="350" y1="296" x2="1280" y2="296" stroke="rgba(255,255,255,0.04)"/>

    <!-- Row 2 highlight -->
    <rect x="342" y="302" width="946" height="56" rx="8" fill="rgba(251,191,36,0.04)"/>
    <rect x="358" y="312" width="34" height="34" rx="8" fill="rgba(255,255,255,0.04)"/>
    <text x="404" y="328" fill="rgba(255,255,255,0.85)" font-size="13" font-weight="500" font-family="-apple-system,system-ui,sans-serif">Klima</text>
    <text x="404" y="344" fill="rgba(255,255,255,0.4)" font-size="11" font-family="-apple-system,system-ui,sans-serif">3 gün içinde bakım gerekli</text>
    <rect x="1184" y="320" width="72" height="20" rx="10" fill="rgba(251,191,36,0.1)"/>
    <circle cx="1198" cy="330" r="2.5" fill="#fbbf24" opacity=".8"/>
    <text x="1220" y="334" text-anchor="middle" fill="rgba(253,230,138,0.9)" font-size="10" font-weight="500" font-family="-apple-system,system-ui,sans-serif">Dikkat</text>
    <line x1="350" y1="364" x2="1280" y2="364" stroke="rgba(255,255,255,0.04)"/>

    <!-- Row 3 -->
    <rect x="358" y="376" width="34" height="34" rx="8" fill="rgba(255,255,255,0.04)"/>
    <text x="404" y="392" fill="rgba(255,255,255,0.85)" font-size="13" font-weight="500" font-family="-apple-system,system-ui,sans-serif">Dizüstü Bilgisayar</text>
    <text x="404" y="408" fill="rgba(255,255,255,0.4)" font-size="11" font-family="-apple-system,system-ui,sans-serif">Garantiye 6 ay kaldı</text>
    <rect x="1184" y="384" width="72" height="20" rx="10" fill="rgba(52,211,153,0.1)"/>
    <circle cx="1198" cy="394" r="2.5" fill="#34d399" opacity=".7"/>
    <text x="1220" y="398" text-anchor="middle" fill="rgba(167,243,208,0.9)" font-size="10" font-weight="500" font-family="-apple-system,system-ui,sans-serif">Normal</text>
    <line x1="350" y1="420" x2="1280" y2="420" stroke="rgba(255,255,255,0.04)"/>

    <!-- Row 4 -->
    <rect x="358" y="432" width="34" height="34" rx="8" fill="rgba(255,255,255,0.04)"/>
    <text x="404" y="448" fill="rgba(255,255,255,0.85)" font-size="13" font-weight="500" font-family="-apple-system,system-ui,sans-serif">İnternet Aboneliği</text>
    <text x="404" y="464" fill="rgba(255,255,255,0.4)" font-size="11" font-family="-apple-system,system-ui,sans-serif">Yenilemeye 5 gün</text>
    <rect x="1184" y="440" width="72" height="20" rx="10" fill="rgba(56,189,248,0.1)"/>
    <circle cx="1198" cy="450" r="2.5" fill="#38bdf8" opacity=".8"/>
    <text x="1220" y="454" text-anchor="middle" fill="rgba(186,230,253,0.9)" font-size="10" font-weight="500" font-family="-apple-system,system-ui,sans-serif">Aktif</text>
    <line x1="350" y1="476" x2="1280" y2="476" stroke="rgba(255,255,255,0.04)"/>

    <!-- Row 5 -->
    <rect x="358" y="488" width="34" height="34" rx="8" fill="rgba(255,255,255,0.04)"/>
    <text x="404" y="504" fill="rgba(255,255,255,0.85)" font-size="13" font-weight="500" font-family="-apple-system,system-ui,sans-serif">Elektrik Faturası</text>
    <text x="404" y="520" fill="rgba(255,255,255,0.4)" font-size="11" font-family="-apple-system,system-ui,sans-serif">Ödeme bekliyor · 2 gün</text>
    <rect x="1184" y="496" width="78" height="20" rx="10" fill="rgba(244,63,94,0.1)"/>
    <circle cx="1198" cy="506" r="2.5" fill="#fb7185" opacity=".8"/>
    <text x="1223" y="510" text-anchor="middle" fill="rgba(253,164,175,0.9)" font-size="10" font-weight="500" font-family="-apple-system,system-ui,sans-serif">Bekliyor</text>
  </g>

  <!-- Base / hinge -->
  <rect x="60" y="800" width="1320" height="18" rx="0" fill="url(#base)"/>
  <rect x="580" y="800" width="280" height="3" rx="1.5" fill="rgba(0,0,0,0.7)"/>
  <line x1="60" y1="800" x2="1380" y2="800" stroke="rgba(255,255,255,0.04)"/>

  <!-- Bottom plate -->
  <path d="M20 818 L60 800 H1380 L1420 818 H20Z" fill="#1c1c1e"/>
  <rect x="0" y="818" width="1440" height="16" rx="8" fill="#161618"/>
  <line x1="0" y1="818" x2="1440" y2="818" stroke="rgba(255,255,255,0.03)"/>
</svg>
